<?xml version="1.0" encoding="UTF-8"?>
<svg xmlns="http://www.w3.org/2000/svg" width="488" height="40" viewBox="0 0 488 40">
<g id="topleft" transform="translate(8 8)"><g><rect x="0" y="0" width="10" height="10" fill="#000" fill-opacity="0"/><path d="M 1 10 A 9 9 0 0 1 10 1 L 10 10 Z" fill="#171E26"/><path d="M 0 10 A 10 10 0 0 1 10 0 L 10 1 A 9 9 0 0 0 1 10 Z" fill="#454F58"/></g></g>
<g id="topright" transform="translate(26 8)"><g transform="translate(10 0) scale(-1 1)"><rect x="0" y="0" width="10" height="10" fill="#000" fill-opacity="0"/><path d="M 1 10 A 9 9 0 0 1 10 1 L 10 10 Z" fill="#171E26"/><path d="M 0 10 A 10 10 0 0 1 10 0 L 10 1 A 9 9 0 0 0 1 10 Z" fill="#454F58"/></g></g>
<g id="bottomleft" transform="translate(44 8)"><g transform="translate(0 10) scale(1 -1)"><rect x="0" y="0" width="10" height="10" fill="#000" fill-opacity="0"/><path d="M 1 10 A 9 9 0 0 1 10 1 L 10 10 Z" fill="#171E26"/><path d="M 0 10 A 10 10 0 0 1 10 0 L 10 1 A 9 9 0 0 0 1 10 Z" fill="#454F58"/></g></g>
<g id="bottomright" transform="translate(62 8)"><g transform="translate(10 10) scale(-1 -1)"><rect x="0" y="0" width="10" height="10" fill="#000" fill-opacity="0"/><path d="M 1 10 A 9 9 0 0 1 10 1 L 10 10 Z" fill="#171E26"/><path d="M 0 10 A 10 10 0 0 1 10 0 L 10 1 A 9 9 0 0 0 1 10 Z" fill="#454F58"/></g></g>
<g id="top" transform="translate(80 8)"><rect x="0" y="0" width="24" height="10" fill="#000" fill-opacity="0"/><rect x="0" y="0" width="24" height="10" fill="#171E26"/><rect x="0" y="0" width="24" height="1" fill="#454F58"/></g>
<g id="bottom" transform="translate(112 8)"><rect x="0" y="0" width="24" height="10" fill="#000" fill-opacity="0"/><rect x="0" y="0" width="24" height="10" fill="#171E26"/><rect x="0" y="9" width="24" height="1" fill="#454F58"/></g>
<g id="left" transform="translate(144 8)"><rect x="0" y="0" width="10" height="24" fill="#000" fill-opacity="0"/><rect x="0" y="0" width="10" height="24" fill="#171E26"/><rect x="0" y="0" width="1" height="24" fill="#454F58"/></g>
<g id="right" transform="translate(162 8)"><rect x="0" y="0" width="10" height="24" fill="#000" fill-opacity="0"/><rect x="0" y="0" width="10" height="24" fill="#171E26"/><rect x="9" y="0" width="1" height="24" fill="#454F58"/></g>
<g id="center" transform="translate(180 8)"><rect x="0" y="0" width="24" height="24" fill="#171E26"/></g>
<g id="hint-top-margin" transform="translate(212 8)"><rect x="0" y="0" width="10" height="10" fill="#000" fill-opacity="0"/></g>
<g id="hint-bottom-margin" transform="translate(230 8)"><rect x="0" y="0" width="10" height="10" fill="#000" fill-opacity="0"/></g>
<g id="hint-left-margin" transform="translate(248 8)"><rect x="0" y="0" width="10" height="10" fill="#000" fill-opacity="0"/></g>
<g id="hint-right-margin" transform="translate(266 8)"><rect x="0" y="0" width="10" height="10" fill="#000" fill-opacity="0"/></g>
<g id="mask-topleft" transform="translate(284 8)"><g><rect x="0" y="0" width="10" height="10" fill="#000" fill-opacity="0"/><path d="M 1 10 A 9 9 0 0 1 10 1 L 10 10 Z" fill="#ffffff"/></g></g>
<g id="mask-topright" transform="translate(302 8)"><g transform="translate(10 0) scale(-1 1)"><rect x="0" y="0" width="10" height="10" fill="#000" fill-opacity="0"/><path d="M 1 10 A 9 9 0 0 1 10 1 L 10 10 Z" fill="#ffffff"/></g></g>
<g id="mask-bottomleft" transform="translate(320 8)"><g transform="translate(0 10) scale(1 -1)"><rect x="0" y="0" width="10" height="10" fill="#000" fill-opacity="0"/><path d="M 1 10 A 9 9 0 0 1 10 1 L 10 10 Z" fill="#ffffff"/></g></g>
<g id="mask-bottomright" transform="translate(338 8)"><g transform="translate(10 10) scale(-1 -1)"><rect x="0" y="0" width="10" height="10" fill="#000" fill-opacity="0"/><path d="M 1 10 A 9 9 0 0 1 10 1 L 10 10 Z" fill="#ffffff"/></g></g>
<g id="mask-top" transform="translate(356 8)"><rect x="0" y="0" width="24" height="10" fill="#000" fill-opacity="0"/><rect x="0" y="0" width="24" height="10" fill="#ffffff"/></g>
<g id="mask-bottom" transform="translate(388 8)"><rect x="0" y="0" width="24" height="10" fill="#000" fill-opacity="0"/><rect x="0" y="0" width="24" height="10" fill="#ffffff"/></g>
<g id="mask-left" transform="translate(420 8)"><rect x="0" y="0" width="10" height="24" fill="#000" fill-opacity="0"/><rect x="0" y="0" width="10" height="24" fill="#ffffff"/></g>
<g id="mask-right" transform="translate(438 8)"><rect x="0" y="0" width="10" height="24" fill="#000" fill-opacity="0"/><rect x="0" y="0" width="10" height="24" fill="#ffffff"/></g>
<g id="mask-center" transform="translate(456 8)"><rect x="0" y="0" width="24" height="24" fill="#ffffff"/></g>
</svg>
